<svg version="1.2" xmlns="http://www.w3.org/2000/svg" viewBox="0 0 1254 458" width="1254" height="458">
	<title>treetop-catering-logo-normal-svg</title>
	<style>
		.s0 { fill: #eb5431 } 
		.s1 { opacity: .9;fill: #b4c548 } 
	</style>
	<g id="naranja">
		<path id="Layer" fill-rule="evenodd" class="s0" d="m343.7 224.5c0 18.2-3.7 36.3-10.9 53.1-7.3 16.9-17.9 32.2-31.4 45.1-13.4 12.9-29.3 23.2-46.9 30.2-17.6 7-36.4 10.6-55.4 10.6-19 0.1-37.9-3.5-55.5-10.4-17.6-7-33.5-17.2-47-30.1-13.5-12.8-24.2-28.1-31.5-44.9-7.3-16.9-11.1-34.9-11.1-53.1 0-18.3 3.7-36.3 10.9-53.2 7.3-16.8 17.9-32.1 31.3-45 13.5-13 29.4-23.2 47-30.2 17.5-7 36.4-10.6 55.4-10.7 19 0 37.9 3.5 55.4 10.5 17.6 6.9 33.6 17.1 47.1 30 13.5 12.9 24.2 28.1 31.5 45 7.3 16.8 11.1 34.8 11.1 53.1zm-137.9-115.7q0-1.1-0.4-2.2-0.5-1-1.3-1.8-0.8-0.8-1.8-1.2-1-0.4-2.2-0.4-1.1 0-2.1 0.4-1.1 0.4-1.8 1.2-0.8 0.8-1.3 1.8-0.4 1.1-0.4 2.2 0 1.1 0.4 2.2 0.5 1 1.3 1.8 0.7 0.8 1.8 1.2 1 0.4 2.1 0.4 1.2 0 2.2-0.4 1-0.4 1.8-1.2 0.8-0.8 1.3-1.8 0.4-1.1 0.4-2.2zm-36.1 11.4c4.6 3.3 6.9 18 13.8 18.1q0.3 0 0.6-0.1 0.3-0.1 0.5-0.3 0.2-0.2 0.3-0.5 0.1-0.3 0.1-0.6 0.6-17.3-12.8-27.3c-1.7-1.3-3.9-0.6-4.7 1.4q-6 14.1 5.4 23.2 0.2 0.1 0.5 0.1 0.2 0 0.4-0.1 0.2-0.2 0.2-0.4 0.1-0.2 0-0.4l-4.7-12.8q-0.3-0.8 0.4-0.3zm57.6-2.6c-1 4.9-6.1 7.7-10.1 10.6q-0.1 0.1-0.1 0.2 0 0.1 0 0.3 0.1 0.1 0.2 0.1 0.1 0.1 0.3 0c9.4-3.2 15.7-6.8 11.7-18.3q-0.8-2.2-3.3-1.4-13.7 4.2-17.5 18.2-0.9 2.9 2 3.7 0.6 0.2 1.1-0.3l15.1-13.4q0.8-0.8 0.6 0.3zm-70.1 2.2c0-1.1-0.2-2.1-0.7-3.2-0.4-1-1-1.9-1.8-2.7-0.8-0.8-1.7-1.4-2.7-1.8-1-0.4-2.1-0.7-3.2-0.7-1.1 0-2.2 0.3-3.2 0.7-1.1 0.4-2 1-2.8 1.8-0.8 0.8-1.4 1.7-1.8 2.7-0.4 1.1-0.6 2.1-0.6 3.2 0 1.2 0.2 2.2 0.6 3.3 0.4 1 1 1.9 1.8 2.7 0.8 0.8 1.7 1.4 2.8 1.8 1 0.4 2.1 0.7 3.2 0.7 1.1 0 2.2-0.3 3.2-0.7 1-0.4 1.9-1 2.7-1.8 0.8-0.8 1.4-1.7 1.8-2.7 0.5-1.1 0.7-2.1 0.7-3.3zm97.1 0q0-1.1-0.5-2.2-0.4-1-1.2-1.8-0.8-0.8-1.8-1.2-1.1-0.5-2.2-0.5-1.1 0-2.2 0.5-1 0.4-1.8 1.2-0.8 0.8-1.2 1.8-0.4 1.1-0.4 2.2 0 1.1 0.4 2.1 0.4 1.1 1.2 1.9 0.8 0.8 1.8 1.2 1.1 0.4 2.2 0.4 1.1 0 2.2-0.4 1-0.4 1.8-1.2 0.8-0.8 1.2-1.9 0.5-1 0.5-2.1zm30.8 24.5c0-1.8-0.3-3.6-1-5.3-0.7-1.8-1.8-3.3-3.1-4.6-1.3-1.3-2.8-2.4-4.5-3.1-1.7-0.7-3.6-1-5.4-1-1.9 0-3.7 0.3-5.4 1-1.7 0.7-3.3 1.8-4.6 3.1-1.3 1.3-2.3 2.8-3 4.6-0.7 1.7-1.1 3.5-1.1 5.3 0 1.9 0.4 3.7 1.1 5.4 0.7 1.7 1.7 3.3 3 4.6 1.3 1.3 2.9 2.3 4.6 3 1.7 0.7 3.5 1.1 5.4 1.1 1.8 0 3.7-0.4 5.4-1.1 1.7-0.7 3.2-1.7 4.5-3 1.3-1.3 2.4-2.9 3.1-4.6 0.7-1.7 1-3.5 1-5.4zm-43.4-12.1c-7.2 1.5-14.6 3.1-21.7 5.1-2.9 0.9-4.6 7.6-5.8 11.5q-0.8 2.5 1.3 2.6 20.7 1.3 27.6-17.7 0.1-0.3 0-0.6-0.1-0.3-0.3-0.5-0.2-0.3-0.5-0.4-0.3-0.1-0.6 0zm-62.9 28.1c-0.8-2-0.6-5.1-1.4-7.3-2.5-7.2-10.3-11.7-16.6-12.8q-12.1-2-24-5.2-0.3-0.1-0.6 0-0.3 0-0.6 0.3-0.2 0.2-0.3 0.5-0.2 0.3-0.1 0.6c2.2 12.8 8.4 21.2 21.3 24.7q10.5 2.9 21.2 5.7 0.3 0.1 0.7 0.1 0.4-0.1 0.7-0.3 0.3-0.3 0.5-0.6 0.1-0.3 0.2-0.7 0-2.1-1-5zm-64.2-11.1c-0.3-1.9 9.5-1.2 10.7-1.2q0.2 0 0.3-0.2 0.2-0.1 0.3-0.3 0-0.2-0.1-0.4-0.1-0.2-0.3-0.3-11-5.8-22-0.1-0.3 0.1-0.5 0.4-0.2 0.2-0.3 0.5 0 0.3 0 0.7 0 0.3 0.2 0.6c6.1 9.9 18.6 15 29.8 10q0.7-0.3 0.3-0.9c-1.9-2.6-14.2-6.5-17.8-8q-0.1 0-0.2-0.1-0.1-0.1-0.2-0.2-0.1-0.1-0.1-0.2-0.1-0.1-0.1-0.3zm163.2 116.3q-1.3-0.8-4.1-2.4-11.4-6.9-26.4-9.1c-6.6-1-17.6 0.2-24-2.7-18.2-8-1-38.8 5-49.8 2.1-3.8 7.3-3.7 11.1-5.9q15.2-8.7 14.7-26.6c-0.2-9.6-6.7-18.3-17.3-15.6-14.4 3.7-21.3 16.4-19.2 30.7q0.3 1.8 1.7 4.3c7.8 13.8-9.2 40.4-17 52.3q-0.1 0.2-0.3 0.3-0.2 0.1-0.4 0-0.2-0.1-0.4-0.2-0.1-0.2-0.1-0.4-1-22.8-2.1-45.9c-0.1-2.6-0.2-3.7 1.8-5.6 5.6-5.6 6.4-11.3 5.8-19.6q-0.8-11.2-2.7-22.4c-0.1-0.4-0.3-0.6-0.5-0.9-0.3-0.2-0.6-0.3-1-0.3-0.3 0.1-0.6 0.2-0.9 0.4-0.2 0.3-0.3 0.6-0.3 0.9l-1.4 21.5q0 0.2-0.2 0.4-0.1 0.2-0.3 0.3-0.3 0.1-0.5 0.1-0.2-0.1-0.4-0.3c-5.7-5.6-7.2-12.6-6.3-20.6q0.7-5.6-1.9-0.5-11.3 22.3 2.1 42.6c1.1 1.5 1.2 3 1.2 4.8q-1.4 25-2.7 50c-0.2 4.9-1.5 11.2-8.2 7.3q-6.5-3.9-13.3-7.6-0.4-0.2-0.8 0.1-5.6 4.1-10.6-0.6-0.2-0.2-0.5-0.3-0.3-0.2-0.6-0.2-0.3 0-0.7 0-0.3 0.1-0.5 0.2l-32.9 16.7q-0.2 0-0.4 0-0.1-0.1-0.2-0.2-0.1-0.1-0.1-0.3 0-0.2 0.2-0.3 13.9-11.7 31.4-17 0.2-0.1 0.3-0.2 0.1-0.2 0.1-0.4 0-0.2-0.1-0.4-0.1-0.1-0.3-0.2c-16.7-6.3-32.1 11.3-43.8 20.5q-1.5 1.1 0.1 2.2c21.7 13.8 37.3-1.4 52.5-14q3.7-3 7.2-0.2c13.8 11.2 22.6 25.4 23.3 43.6 0.5 13.7-1.5 26.6-3.1 40.1-0.6 4.6-1.5 8.6 2 11 4.2 2.8 10.6 0.8 13.6-3.1 1.9-2.5 2.1-7.2 2.1-10q0-32.2 0-64.5c0-1.3 0.7-2.6 1.9-3.1q7.2-2.6 26.2-8.9c2.5-0.8 5-0.9 6.6 1.1 2.7 3.3 5.6 7 8.8 9.6q18.7 15.8 42.7 5.8 0.3-0.1 0.4-0.3 0.2-0.2 0.2-0.4 0.1-0.3 0-0.5-0.1-0.3-0.3-0.5c-9-8.2-18.4-18.4-29.9-22.5-2.5-0.9-19.2-2.7-16.9 3.8q0.1 0.4 0.6 0.6c2.7 1.1 5.7 0.7 7.9 1.1q12.9 2.7 22.3 11.9 0.8 0.9-0.2 0.3zm26.5-103.1q0-1.1-0.4-2.1-0.5-1-1.2-1.8-0.8-0.8-1.8-1.2-1.1-0.4-2.2-0.4-1.1 0-2.1 0.4-1 0.4-1.8 1.2-0.8 0.8-1.2 1.8-0.4 1-0.4 2.1 0 1.1 0.4 2.1 0.4 1 1.2 1.8 0.8 0.8 1.8 1.2 1 0.4 2.1 0.4 1.1 0 2.2-0.4 1-0.4 1.8-1.2 0.7-0.8 1.2-1.8 0.4-1 0.4-2.1zm-173.8 8.8q0-1.1-0.5-2.2-0.4-1-1.2-1.8-0.8-0.8-1.8-1.2-1.1-0.5-2.2-0.5-1.2 0-2.2 0.5-1 0.4-1.8 1.2-0.8 0.8-1.3 1.8-0.4 1.1-0.4 2.2 0 1.1 0.4 2.2 0.5 1 1.3 1.8 0.8 0.8 1.8 1.3 1 0.4 2.2 0.4 1.1 0 2.2-0.4 1-0.5 1.8-1.3 0.8-0.8 1.2-1.8 0.5-1.1 0.5-2.2zm159.5 4.2c0-1.2-0.2-2.4-0.7-3.5-0.5-1.1-1.2-2.2-2-3-0.9-0.9-1.9-1.6-3-2-1.1-0.5-2.3-0.7-3.5-0.7-1.3 0-2.5 0.2-3.6 0.7-1.1 0.4-2.1 1.1-3 2-0.8 0.8-1.5 1.9-2 3-0.5 1.1-0.7 2.3-0.7 3.5 0 1.2 0.2 2.4 0.7 3.6 0.5 1.1 1.2 2.1 2 3 0.9 0.8 1.9 1.5 3 2 1.1 0.4 2.3 0.7 3.6 0.7 1.2 0 2.4-0.3 3.5-0.7 1.1-0.5 2.1-1.2 3-2 0.8-0.9 1.5-1.9 2-3 0.5-1.2 0.7-2.4 0.7-3.6zm-129.3 1.8c0-1.4-0.2-2.7-0.7-3.9-0.5-1.2-1.3-2.3-2.2-3.2-0.9-1-2-1.7-3.3-2.2-1.2-0.5-2.5-0.8-3.8-0.8-1.3 0-2.6 0.3-3.8 0.8-1.2 0.5-2.4 1.2-3.3 2.2-0.9 0.9-1.7 2-2.2 3.2-0.5 1.2-0.7 2.5-0.7 3.8 0 1.4 0.2 2.7 0.7 3.9 0.5 1.2 1.3 2.3 2.2 3.2 0.9 1 2.1 1.7 3.3 2.2 1.2 0.5 2.5 0.8 3.8 0.8 1.3 0 2.6-0.3 3.8-0.8 1.3-0.5 2.4-1.2 3.3-2.2 0.9-0.9 1.7-2 2.2-3.2 0.5-1.2 0.7-2.5 0.7-3.8zm-43.2 7.7c0-1.1-0.2-2.1-0.6-3.2-0.4-1-1-1.9-1.8-2.7-0.8-0.7-1.7-1.4-2.7-1.8-1-0.4-2.1-0.6-3.2-0.6-1.1 0-2.2 0.2-3.2 0.6-1 0.4-2 1.1-2.7 1.8-0.8 0.8-1.4 1.7-1.9 2.7-0.4 1.1-0.6 2.1-0.6 3.2 0 1.1 0.2 2.2 0.6 3.2 0.5 1.1 1.1 2 1.9 2.8 0.7 0.7 1.7 1.3 2.7 1.8 1 0.4 2.1 0.6 3.2 0.6 1.1 0 2.2-0.2 3.2-0.6 1-0.5 1.9-1.1 2.7-1.8 0.8-0.8 1.4-1.7 1.8-2.8 0.4-1 0.6-2.1 0.6-3.2zm25.4 10.4c0-1.3-0.3-2.6-0.8-3.8-0.5-1.2-1.3-2.3-2.2-3.3-0.9-0.9-2-1.6-3.2-2.1-1.3-0.5-2.6-0.8-3.9-0.8-1.3 0-2.6 0.3-3.8 0.8-1.2 0.5-2.3 1.2-3.3 2.1-0.9 1-1.6 2.1-2.1 3.3-0.6 1.2-0.8 2.5-0.8 3.8 0 1.4 0.2 2.7 0.8 3.9 0.5 1.2 1.2 2.3 2.1 3.2 1 1 2.1 1.7 3.3 2.2 1.2 0.5 2.5 0.8 3.8 0.8 1.3 0 2.6-0.3 3.9-0.8 1.2-0.5 2.3-1.2 3.2-2.2 0.9-0.9 1.7-2 2.2-3.2 0.5-1.2 0.8-2.5 0.8-3.9zm171.8-0.2q0.2 0.1 0.2 0.3 0.1 0.2 0 0.4-0.1 0.1-0.3 0.2-0.2 0.1-0.4 0.1l-22.9-6.2q-0.4-0.1-0.8 0.1-0.4 0.1-0.6 0.5-0.3 0.3-0.2 0.7 0 0.4 0.2 0.7 11 14.9 29.6 12.9 2.8-0.3 3.6-2.4 0.2-0.6-0.1-1.2-5.7-11.5-18.4-14.5-0.2 0-0.4 0-0.1 0.1-0.2 0.3-0.1 0.1 0 0.3 0 0.2 0.2 0.3zm-31.5 6.3c0-1.8-0.3-3.7-1-5.4-0.8-1.7-1.8-3.2-3.1-4.5-1.3-1.3-2.8-2.3-4.5-3-1.7-0.7-3.6-1.1-5.4-1.1-1.8 0-3.7 0.4-5.4 1.1-1.7 0.7-3.2 1.7-4.5 3-1.3 1.3-2.3 2.8-3.1 4.5-0.7 1.7-1 3.6-1 5.4 0 1.9 0.3 3.7 1 5.4 0.8 1.7 1.8 3.2 3.1 4.5 1.3 1.3 2.8 2.4 4.5 3.1 1.7 0.7 3.6 1 5.4 1 1.8 0 3.7-0.3 5.4-1 1.7-0.7 3.2-1.8 4.5-3.1 1.3-1.3 2.3-2.8 3.1-4.5 0.7-1.7 1-3.5 1-5.4zm-100.6 2.2c0-1.8-0.4-3.7-1.1-5.4-0.7-1.7-1.8-3.3-3.1-4.6-1.3-1.3-2.9-2.4-4.6-3.1-1.7-0.7-3.6-1-5.4-1-1.9 0-3.7 0.3-5.5 1-1.7 0.7-3.2 1.8-4.6 3.1-1.3 1.3-2.3 2.9-3 4.6-0.8 1.7-1.1 3.6-1.1 5.4 0 1.9 0.3 3.7 1.1 5.5 0.7 1.7 1.7 3.3 3 4.6 1.4 1.3 2.9 2.3 4.6 3 1.8 0.8 3.6 1.1 5.5 1.1 1.8 0 3.7-0.3 5.4-1.1 1.7-0.7 3.3-1.7 4.6-3 1.3-1.3 2.4-2.9 3.1-4.6 0.7-1.8 1.1-3.6 1.1-5.5zm-80.9 9.5c-2.4-6.2-7.4-14-14.5-16.3-5-1.6-11.8 1.5-11.4 7.4 0.4 7.9 21 15.6 25.7 9.9q0.4-0.5 0.2-1zm54.4 20.9c2.8-0.1 5.4 1.2 8.1 2.3q0.1 0.1 0.3 0.1 0.2-0.1 0.3-0.2 0.1-0.1 0.2-0.3 0-0.2 0-0.3c-2.9-8.1-9.2-18.2-17.6-21.4q-6.3-2.3-11.9-2-11.7 0.8-22.8 0.9-1.2 0-0.7 1.1 7.2 15.7 23 20.1c3.9 1.1 8.7 0.7 12.9 0.7 2.7 0 5.4-0.9 8.2-1zm86.8 7.2c3.4-2.2 5.6-0.7 9.1-0.2q26.2 4 38.4-18.6 0.2-0.3 0.2-0.6 0-0.4-0.1-0.7-0.2-0.3-0.5-0.5-0.3-0.2-0.6-0.3c-16.9-2.6-42.1-6.2-47.5 16.2-0.8 3.2-5.5 5-4.7 7.4q0.2 0.6 0.8 0.3 2.5-1.5 4.9-3zm-153.5-6.2c0.2 0 0.8 0.1 1.1 0.2q15.1 10.2 33.3 8.9c1.1-0.1 2.8 0.3 3.9-0.7q0.5-0.3 0.4-0.9-0.1-2-1.9-4.5-11.3-16.2-30.5-13.9c-3 0.4-12.4 1.6-11.7 6.2 2.4 16.3 12.7 21.4 28.1 19.3q0.5 0 0.6-0.6l0.2-0.9q0-0.6-0.6-0.8-13-3.1-23-11.9-0.4-0.3 0.1-0.4zm223.1 7q1.1-0.1 0.2 0.7-8.6 7.9-19.9 9.6c-1.9 0.3-4.9 0.2-7.4 0.8q-0.1 0.1-0.2 0.2-0.1 0.1-0.1 0.2 0 0.1 0.1 0.3 0 0.1 0.2 0.1c13.7 5.4 27.1 3.2 32.5-12.2 3.1-8.8-4-10.5-10.9-11.3-12.4-1.6-23.4 4-30.8 14.1-1.4 2-0.7 6 2.5 6.1q17.7 0.1 33-8.5 0.3-0.1 0.5-0.1 0.1 0 0.3 0z"/>
		<path id="Layer" fill-rule="evenodd" class="s0" d="m1055.3 167.4c0 7.7-1.5 15.4-4.5 22.6-2.9 7.2-7.3 13.7-12.8 19.2-5.5 5.5-12 9.9-19.2 12.8-7.2 3-14.9 4.6-22.6 4.6-7.8-0.1-15.5-1.6-22.7-4.6-7.2-2.9-13.7-7.3-19.2-12.8-5.5-5.5-9.9-12-12.8-19.2-3-7.2-4.5-14.9-4.5-22.6 0-7.8 1.5-15.5 4.5-22.7 2.9-7.2 7.3-13.7 12.8-19.2 5.5-5.5 12-9.8 19.2-12.8 7.2-3 14.9-4.5 22.7-4.5 7.7 0 15.4 1.5 22.6 4.5 7.2 3 13.7 7.3 19.2 12.8 5.5 5.5 9.9 12 12.8 19.2 3 7.2 4.5 14.9 4.5 22.7zm-85.5-38c-0.3 2.9-0.6 3.9-1.7 6.6q-0.2 0.6 0.3 0.9 2.6 1.3 5.4 0.1 0.5-0.2 0.4-0.8-1-3.9-3.5-7.1-0.1-0.2-0.2-0.2-0.2-0.1-0.4 0-0.1 0-0.2 0.2-0.1 0.1-0.1 0.3zm26 67.6c3.8 0.1 7.5-0.6 10.9-2.1 3.5-1.5 6.6-3.6 9.3-6.4 2.7-2.7 4.8-6 6.3-9.6 1.4-3.6 2.2-7.5 2.2-11.4 0.1-3.9-0.6-7.8-2-11.4-1.3-3.7-3.4-7-6-9.8-2.6-2.8-5.7-5-9.1-6.6-3.4-1.5-7.1-2.3-10.8-2.4-3.7 0-7.4 0.7-10.9 2.2-3.5 1.4-6.6 3.6-9.3 6.3-2.6 2.8-4.8 6-6.2 9.6-1.5 3.6-2.3 7.5-2.3 11.4-0.1 4 0.6 7.8 2 11.5 1.4 3.6 3.4 6.9 6 9.7 2.6 2.9 5.7 5.1 9.1 6.6 3.4 1.6 7.1 2.4 10.8 2.4zm-48.7-42.6c1.7 2.5 2.8 4.3 1.8 7q-2 5-5.5 8.9-0.4 0.4-0.3 0.8c0.8 4.8 5.9 0.7 7.2-1.4q5.9-9.4-1-18.1-0.1-0.2-0.4-0.3-0.2-0.1-0.5-0.1-0.2 0.1-0.4 0.2-0.2 0.2-0.3 0.4l-0.7 1.6q-0.2 0.6 0.1 1zm92.6 25.3l2.1 8.2q0.1 0.2 0.2 0.3 0.1 0.1 0.2 0.2 0.1 0.1 0.3 0.1 0.1 0 0.3 0l0.4-0.1q0.8-0.2 1.4-0.7 0.6-0.6 1-1.3 0.4-0.8 0.5-1.7 0.1-0.9-0.1-1.8l-0.2-0.7q-0.2-0.9-0.7-1.7-0.6-0.7-1.3-1.2-0.7-0.5-1.5-0.7-0.8-0.1-1.6 0.1l-0.4 0.1q-0.2 0-0.3 0.1-0.1 0.1-0.2 0.2-0.1 0.1-0.1 0.3 0 0.2 0 0.3zm-89.4 14.2q0.4 0 0.8-0.3 0.4-0.2 0.7-0.6 0.2-0.4 0.3-0.9 0.1-0.6 0.1-1.1-0.1-0.5-0.3-1-0.2-0.5-0.5-0.9-0.4-0.3-0.8-0.5-0.4-0.1-0.8-0.1-0.5 0-0.8 0.3-0.4 0.2-0.7 0.7-0.2 0.4-0.3 0.9-0.2 0.5-0.1 1 0.1 0.6 0.3 1.1 0.2 0.4 0.5 0.8 0.4 0.3 0.8 0.5 0.4 0.2 0.8 0.1z"/>
		<path id="Layer" fill-rule="evenodd" class="s0" d="m895.3 138.4q-0.3 0.2-0.5 0.4-0.3 0.2-0.4 0.4-0.2 0.3-0.3 0.6-0.1 0.3-0.1 0.6 0 38.6 0 77.2c0 3.7-1.3 7.3-5.3 7.3q-17 0.3-21.6 0c-3.8-0.2-5.1-3.4-5.1-6.9q0-37.5 0-74.9c0-2.4-1.3-4.5-3.7-4.6q-14.5-0.6-22-1.2c-3-0.2-4.3-2.2-4.3-5.1-0.1-6.1 0.5-12 0.6-18.1 0-3.5 2.4-4.7 5.6-4.6 10.6 0.2 23.3-0.4 31.7-0.5q36.7-0.2 48.8 0.1 4.4 0.1 4.6 4.9 0.7 14.1 0.7 19.2c0 3.2-2 4.8-5.2 4.8q-6.3 0-12.6 0c-3.1 0-6.9-1.2-10.9 0.4zm-44.3-18.4c2-0.2 5 0.8 5.8-1.6q0.2-0.5-0.1-1-1.9-3.1-5.7-3.3c-3.1-0.1-13.1-1.2-14.6 2.2-1 2 1.3 7.1 1.9 9.4q1 4.4 5 3.3 0.3 0 0.6-0.2 0.3-0.2 0.5-0.4 0.2-0.2 0.4-0.5 0.1-0.3 0.2-0.6c0.6-3 2.6-6.9 6-7.3zm-2.2 7.7l8.5 5.4q0 0 0 0 0 0 0 0 0 0 0 0 0 0 0 0 0.5-0.8 0.6-1.7 0.1-0.9-0.1-1.8-0.3-0.9-0.8-1.6-0.6-0.8-1.4-1.3l-0.3-0.2q-0.8-0.5-1.8-0.7-0.9-0.2-1.8-0.1-0.9 0.2-1.7 0.7-0.8 0.5-1.2 1.2v0.1q-0.1 0-0.1 0 0 0 0 0 0 0 0 0 0 0 0.1 0zm33.1 55.6c-6.2-2.7-7.4-8.6-4.2-14.2q0.3-0.5 0.1-1-1.1-2.5-3.7-3.5-0.5-0.2-1 0.1c-1.5 1-2.3 15.3-2.6 17.8-0.1 1.8-1.4 6.7 2.7 5.4q4.4-1.5 8.7-3.1 0.2-0.1 0.3-0.3 0.2-0.2 0.2-0.4 0-0.3-0.1-0.5-0.2-0.2-0.4-0.3z"/>
		<path id="Layer" fill-rule="evenodd" class="s0" d="m1112.3 186.1q-0.3 0-0.6 0.1-0.3 0.2-0.6 0.4-0.2 0.2-0.3 0.5-0.1 0.3-0.1 0.6-0.5 16.5-0.8 32.7c0 2.2 0.7 4.6-2.6 4.6q-12.4 0-24.8 0-1.7 0-3.2-1.5-0.3-0.5-0.3-1v-110.3q0-0.5 0.2-0.9 0.2-0.4 0.5-0.7 0.3-0.3 0.7-0.5 0.4-0.2 0.8-0.2c18-0.5 36.2-1.8 54.6 0.6 35.1 4.6 43.6 47.2 17.1 67.8-8.1 6.3-16.3 7.6-27.2 7.3-4.8-0.1-9 0.3-13.4 0.5zm-2.2-45.1l-0.2 12.9q0 1.3 0.5 2.4 0.4 1.1 1.3 2 0.8 0.9 1.9 1.4 1.2 0.5 2.4 0.5l7.1 0.1c1.8 0 3.5-0.3 5.2-0.9 1.6-0.6 3.1-1.5 4.3-2.7 1.3-1.1 2.3-2.5 3-4 0.7-1.6 1.1-3.2 1.1-4.9 0-1.6-0.3-3.3-0.9-4.8-0.7-1.6-1.7-3-2.9-4.2-1.2-1.2-2.7-2.1-4.3-2.8-1.6-0.6-3.4-1-5.1-1l-7.2-0.1q-1.2 0-2.3 0.4-1.2 0.5-2 1.3-0.9 0.9-1.4 2-0.5 1.1-0.5 2.4zm32.2 28.3l1.4 3.1q0 0.2 0.2 0.3 0.1 0.2 0.3 0.2 0.1 0.1 0.3 0.1 0.2 0 0.3-0.1l0.3-0.1q0.7-0.3 1.2-0.7 0.5-0.4 0.8-1 0.3-0.5 0.4-1 0-0.5-0.2-1l-0.1-0.2q-0.2-0.5-0.6-0.8-0.4-0.3-1-0.5-0.6-0.1-1.3 0-0.7 0.1-1.3 0.3l-0.3 0.2q-0.1 0-0.3 0.2-0.1 0.1-0.2 0.3 0 0.1 0 0.3 0 0.2 0.1 0.4z"/>
		<path id="Layer" class="s0" d="m220.7 145.5q0 0 0 0-0.1 0-0.1 0 0 0 0 0-0.1-0.1-0.1-0.1-0.3-0.6-0.1-1.2 0.1-0.7 0.6-1.4 0.5-0.7 1.3-1.4 0.7-0.6 1.7-1.1l1.3-0.6q1-0.5 2-0.7 0.9-0.2 1.8-0.1 0.9 0 1.5 0.4 0.6 0.3 0.9 0.8v0.1q0 0 0 0 0 0.1 0 0.1 0 0-0.1 0.1 0 0 0 0z"/>
		<path id="Layer" class="s0" d="m145.1 144.8c13.1-0.8 24.4 3.5 31.8 14.5q0.1 0.1 0.1 0.2 0 0.2-0.1 0.3-0.1 0.1-0.3 0.1-0.1 0-0.3-0.1c-9.6-8.2-19.1-11.5-31.2-14.2q-0.2 0-0.3-0.1-0.1-0.2-0.1-0.3 0.1-0.2 0.2-0.3 0.1-0.1 0.2-0.1z"/>
		<path id="Layer" class="s0" d="m89.8 205.6c-2.1-0.8-3.5-2.1-3.2-3 0.3-0.9 2.2-1.1 4.3-0.3 2.1 0.7 3.6 2 3.2 2.9-0.3 0.9-2.2 1.1-4.3 0.4z"/>
		<path id="Layer" class="s0" d="m154.6 226.9c-9.9-5.1-18.2-5.2-28.3-4.9q-0.3 0-0.3-0.4 0-0.5 0.4-0.6c7.8-1.5 20.4-2.2 27.2 1.2 0.9 0.4 4.7 3.8 2 4.7q-0.5 0.2-1 0z"/>
		<path id="Layer" class="s0" d="m269.9 227.6q-11.5 3.2-23.2 6.4-0.1 0-0.2 0-0.2 0-0.3-0.1-0.1-0.1-0.2-0.2 0-0.1 0-0.3c-0.1-7.7 25.3-9.5 30.3-9.4q0.2 0 0.4 0.1 0.2 0.2 0.3 0.4 0.1 0.3 0 0.5-0.1 0.3-0.3 0.4c-2.2 1.3-4.7 1.6-6.8 2.2z"/>
	</g>
	<g id="verde">
		<path id="Layer" fill-rule="evenodd" class="s1" d="m576 180.2q-0.1 0.1-0.1 0.3-0.1 0.2-0.1 0.4 0 0.2 0.1 0.4 0.1 0.2 0.1 0.3l20.4 38.9q0.3 0.5 0.2 1c-0.2 2.2-1.4 3.2-3.6 3.2q-18.2 0.6-26.8 0.3c-3.5-0.2-17.8-28.7-20.1-33.1-2.5-4.9-13.1-8.7-13.1-0.1q0 15 0 30c0 1.8-1.9 3.3-3.9 3.2q-12.8-0.1-25.7-0.3-0.5 0-0.9-0.2-0.5-0.2-0.8-0.6-0.3-0.3-0.5-0.7-0.2-0.5-0.2-1 0-53.6 0-107.9c0-2.7 2.4-3.6 4.9-3.8 9.2-0.7 18.6-0.8 27.8-1.2 17.5-0.8 34.2-1.1 47.6 11.3 15.5 14.2 17.2 35.6 2.3 51.4-2.1 2.3-6.5 5.4-7.6 8.2zm-38.2-18.5c10.1 1.1 19.7-1.9 23.6-11.9 3.5-9-5.5-14.7-13.4-14.8q-6.6-0.1-12.7 0-0.4 0-0.9 0.2-0.4 0.2-0.7 0.5-0.4 0.4-0.5 0.8-0.2 0.4-0.2 0.9 0 9.6 0 19.2c0 3.7 1.3 4.8 4.8 5.1zm37.7-15.3l0.8-5.6q0.1-0.2 0-0.4 0-0.2-0.1-0.3-0.2-0.2-0.3-0.3-0.2 0-0.4-0.1h-0.1q-0.7-0.1-1.3 0.1-0.7 0.2-1.2 0.6-0.6 0.5-0.9 1.1-0.4 0.6-0.5 1.3v0.2q-0.1 0.8 0.1 1.5 0.1 0.6 0.5 1.2 0.4 0.6 1 1 0.6 0.3 1.2 0.4h0.2q0.2 0.1 0.4 0 0.1 0 0.3-0.1 0.1-0.1 0.2-0.3 0.1-0.2 0.1-0.3zm-6.5 23.2l5.7-4q0-0.1 0-0.1 0 0 0-0.1 0.1 0 0 0 0-0.1 0-0.1v-0.1q-0.4-0.5-0.9-0.8-0.6-0.3-1.2-0.4-0.7-0.1-1.3 0.1-0.7 0.2-1.3 0.6l-0.3 0.2q-0.5 0.4-0.9 0.9-0.4 0.6-0.6 1.2-0.1 0.7 0 1.3 0.1 0.6 0.5 1.1v0.1q0 0 0.1 0.1 0 0 0 0 0.1 0 0.1 0 0 0 0.1 0zm-54.4 21.3l1.9-1.5q0.7-0.5 0.2-1.2l-5.6-9.2q-0.2-0.3-0.5-0.4-0.4-0.1-0.7 0-0.4 0.1-0.6 0.4-0.1 0.3-0.1 0.7c1.2 11.5 2.2 25.4-1.9 36.2q-0.2 0.4-0.1 0.9 0.1 0.4 0.3 0.8 0.3 0.3 0.7 0.5 0.4 0.2 0.8 0.2l4.4-0.2q0.3 0 0.7-0.2 0.3-0.2 0.5-0.5 0.3-0.3 0.3-0.7 0.1-0.3 0-0.7-3.1-12-0.8-24.2 0.1-0.5 0.5-0.9zm57.1 28c5.4-12.3 13.2 5.6 17.5-2q0.2-0.3 0.2-0.6 0-0.3-0.1-0.6-0.1-0.3-0.4-0.5-0.2-0.2-0.6-0.3l-16.7-3.4q-0.7-0.2-1.2 0.5-2.4 2.9-1.4 6.7 0.2 0.4 0.5 0.7 0.3 0.2 0.8 0.3 0.4 0 0.8-0.2 0.4-0.2 0.6-0.6z"/>
		<path id="Layer" fill-rule="evenodd" class="s1" d="m452.6 137.5q-0.3 0-0.6 0.2-0.3 0.2-0.5 0.4-0.3 0.3-0.4 0.6-0.1 0.4-0.1 0.7 0 40.3 0 80.5c0 5.9-3.2 4.3-7 4.3q-10.2 0.1-20.5 0-3.6 0-3.7-3.2c-0.2-26.2 0.1-52.4-0.2-78.6 0-3-1.8-5.1-4.7-5.1q-11 0-21.7-0.4-0.3 0-0.7-0.1-0.3-0.1-0.6-0.3-0.2-0.3-0.4-0.6-0.2-0.3-0.3-0.6-2.9-12.1 0-24.1 0.1-0.3 0.2-0.6 0.2-0.2 0.5-0.4 0.2-0.2 0.5-0.3 0.3-0.1 0.6-0.1 29-0.1 58-0.1c0.6 0 1.7-0.4 2.4-0.4q12.3-0.1 24.5 0 1.6 0 2.8 1.7 0.3 0.4 0.3 0.9c0 5.7-0.2 11.5 0.2 17.3 1 14.3-20.9 6.9-28.6 8.3zm-46.9-13.6c-0.9-4 4.4-4.2 7-3.8q0.3 0 0.7-0.1 0.4-0.1 0.7-0.3 0.3-0.3 0.4-0.6 0.2-0.3 0.2-0.7c0.3-4.5-2.2-5.3-6.2-5.4-3.5 0-15.6-1.8-15.2 3.7q0.4 6.3 1.5 16.6 0.1 0.5 0.6 0.6 2.2 0.8 4.4-0.1 0.7-0.2 0.3-0.8c-2.3-3.7-0.2-8 4.3-5.1q4.3 2.7 8.7 5.3 0.3 0.3 0.8 0.3 0.4 0 0.8-0.2 0.3-0.2 0.6-0.6 0.2-0.4 0.2-0.8c0.2-5.4-4.7-6.8-9.1-7.4q-0.6 0-0.7-0.6zm30.7 58.9c-5.5-5.1 0-10-2.8-15.9q-0.2-0.4-0.5-0.6-0.4-0.3-0.8-0.3-0.5 0-0.9 0.1-0.4 0.2-0.7 0.6-6.6 9.7-0.7 20 0.2 0.3 0.5 0.6 0.3 0.2 0.7 0.3 0.4 0.1 0.8 0.1 0.4-0.1 0.8-0.3l3.3-2q0.3-0.2 0.5-0.5 0.3-0.3 0.3-0.7 0-0.4-0.1-0.8-0.1-0.4-0.4-0.6z"/>
		<path id="Layer" fill-rule="evenodd" class="s1" d="m770.3 138.8c-3.5 0.1-9.4-1.1-9.3 4.6 0.1 4.1-0.9 11.6 4.6 11.6q16.2 0 32.5 0c1.7 0 2.6 0.6 3.6 1.9q0.3 0.4 0.3 0.9 0.2 8.5 0.8 16.9 0.2 2.5-2.4 4-0.4 0.3-0.9 0.3-17.1 0-34.2 0-3.4 0-3.7 3.7c-0.6 5.9-2.2 13.9 4.9 14q22.6 0.4 45.1 0.3c2.1 0 4.6 1.7 4.5 3.7q-0.7 10.7-1.2 21.4 0 0.5-0.3 0.9c-1 1.2-2.1 2-3.8 2q-38.9 0-77.8 0c-2.7 0-4-2.4-4-5q0-53 0-106c0-4.6 7-3.1 9.9-3.4q3.2-0.3 4.8-0.3 34-0.3 68-0.5c1.5 0 2.5 1.9 2.5 3.4q0.1 11.1 0 22.2 0 0.5-0.3 0.9-1.6 1.7-4 1.7-21-0.2-39.6 0.7zm-24.8 48.5l7.3 5.4q0 0 0.1 0.1 0 0 0 0 0.1 0 0.1-0.1 0 0 0.1 0v-0.1q0.6-0.8 0.9-1.7 0.2-0.9 0.1-1.9-0.1-0.9-0.6-1.7-0.5-0.8-1.2-1.4l-0.2-0.1q-0.7-0.5-1.6-0.8-0.9-0.2-1.8 0-1 0.1-1.8 0.6-0.8 0.5-1.4 1.3v0.1q-0.1 0-0.1 0.1 0 0 0 0 0 0.1 0 0.1 0.1 0 0.1 0.1z"/>
		<path id="Layer" fill-rule="evenodd" class="s1" d="m650 140.6l-0.9 11.6q0 0.6 0.2 1.1 0.2 0.5 0.5 0.9 0.4 0.4 0.9 0.6 0.5 0.2 1.1 0.2 17.5-0.1 34.9 0.1c3.6 0 5.2 1 5 4.8q-0.5 8.7-0.7 17.3 0 1.8-1.8 1.8-18.2 0-36.4 0c-4.2 0-2.8 11.2-2.8 13.9 0 2.2 1.1 3.7 3.3 3.8q24.3 0.4 48.7 0.3 0.4 0 0.8 0.1 0.3 0.2 0.6 0.5 0.3 0.3 0.4 0.6 0.2 0.4 0.2 0.8 0 11.3 0 23c0 1.8-2.1 3-3.9 3q-39.7 0-79.4 0c-2 0-2.8-1.5-2.9-3.4-0.5-8.5-0.1-18.9-0.1-25.5 0.1-24.5 0.4-49.1-0.2-73.6q-0.1-5 0.4-10.1 0.1-0.5 0.2-0.9 0.2-0.3 0.6-0.6 0.3-0.3 0.7-0.5 0.4-0.1 0.8-0.2h80.7q0.5 0.1 1 0.2 0.4 0.2 0.7 0.6 0.4 0.3 0.5 0.8 0.2 0.4 0.2 0.9l-1.3 22.6q0 0.3-0.1 0.6-0.1 0.3-0.3 0.5-0.3 0.2-0.5 0.3-0.3 0.1-0.6 0.1-23 1.3-46 1.5-2.3 0-4 1.3-0.5 0.4-0.5 1zm-7.3 51.8c0.5-1.7-1-6.5-1.9-7.6q-0.3-0.4-0.7-0.6-0.3-0.2-0.8-0.2-0.4 0-0.8 0.2-0.4 0.2-0.7 0.5c-2.9 3.5 1 6 3.2 8.1q0.2 0.2 0.4 0.3 0.3 0.1 0.6 0 0.3-0.1 0.4-0.3 0.2-0.2 0.3-0.4z"/>
		<path id="Layer" class="s1" d="m405.9 310.9c-3.3 11.6 5.4 24.5 17.1 26.6 7.1 1.3 12.9-2.1 18.5-6.5q0.4-0.3 0.9-0.3c2.9 0.2 11.5 8.8 7.8 11.5-22.9 16.9-54.2 9.3-60-20.5-2.8-14.3 3.4-27.2 15.6-35.1q20.6-13.3 43.5 2.3c4.5 3.1-3.5 10.2-5.8 12.4q-0.2 0.2-0.5 0.3-0.2 0.1-0.5 0.2-0.3 0-0.6-0.1-0.2 0-0.5-0.2c-10.1-6.7-19.7-10.2-29.5-0.6q-4.4 4.4-6 10z"/>
		<path id="Layer" class="s1" d="m1155.8 325.5q0-0.4-0.2-0.7-0.2-0.3-0.4-0.5-0.3-0.3-0.7-0.4-0.3-0.1-0.7-0.1l-11.9-0.1q-0.3 0-0.5-0.1-0.2 0-0.3-0.2-0.2-0.2-0.3-0.4 0-0.2 0-0.5l1-9.9q0-0.3 0.1-0.6 0.2-0.3 0.4-0.5 0.3-0.3 0.6-0.4 0.3-0.1 0.7-0.1h24.9q0.4 0 0.9 0.2 0.4 0.1 0.7 0.5 0.3 0.3 0.5 0.7 0.1 0.4 0.1 0.9 0.1 12.4 0 25.4 0 2.7-2.2 4.1c-11.6 7.8-27.1 11.7-40.1 6.3-23.2-9.6-32.2-41.6-11.1-58.8q21.3-17.2 47.7-2.5c5.2 2.9-2.3 9.7-4.6 12.5q-0.3 0.3-0.6 0.5-0.4 0.2-0.8 0.3-0.5 0-0.9-0.1-0.4-0.1-0.7-0.4c-8.9-6.7-23.4-10.5-30.6 1.3-12.6 20.4 2.7 46.2 28 32.7q0.5-0.3 0.6-0.9 1.1-4 0.4-8.2z"/>
		<path id="Layer" fill-rule="evenodd" class="s1" d="m829.1 329.9q-0.4 1.4-0.3 3.6 0.3 7.8 0.3 15.5 0 0.3-0.1 0.5-0.1 0.2-0.3 0.4-0.1 0.2-0.4 0.3-0.2 0.1-0.4 0.1l-12.3 0.8q-0.4 0-0.9-0.1-0.4-0.2-0.7-0.5-0.4-0.3-0.6-0.7-0.1-0.4-0.1-0.9-0.1-31.4 0-62.7c0-2.2 1.2-3.7 3.3-3.9 18.9-1.3 55.4-4.8 53.4 24.7q-0.9 12.7-12.3 18.1-0.3 0.2-0.6 0.4-0.2 0.3-0.3 0.6-0.1 0.3 0 0.7 0.1 0.3 0.2 0.6l14.6 21.7q0.2 0.2 0.2 0.5 0 0.3-0.1 0.5-0.1 0.3-0.4 0.4-0.2 0.2-0.5 0.2-6.5 0.1-13.1 0.4c-1.8 0-3.6-1.5-4.7-3.1q-4.9-7.7-9.9-15.3c-1.6-2.4-2-3.5-5.1-3.7q-4.1-0.3-8.1 0.2-0.7 0.1-0.8 0.7zm12.2-34.1c-3.7-0.3-12.6-2.8-13 2.8q-0.3 3.4 0 13.4 0.1 3.1 3.4 3.5c9.2 1.2 22.1 1.8 23.5-10.1 1.2-9.9-7.3-9.1-13.9-9.6z"/>
		<path id="Layer" fill-rule="evenodd" class="s1" d="m545.8 335h-26.3q-0.4 0-0.7 0.1-0.4 0.1-0.6 0.3-0.3 0.2-0.5 0.5-0.2 0.3-0.4 0.6l-4.5 12.3q-0.1 0.3-0.4 0.6-0.2 0.3-0.5 0.5-0.2 0.2-0.6 0.3-0.3 0.1-0.7 0.1l-10.6-0.1q-0.5 0-1-0.3-0.5-0.2-0.8-0.7-0.4-0.5-0.4-1-0.1-0.6 0.2-1.1l27-63.7q0.1-0.3 0.3-0.6 0.2-0.2 0.5-0.4 0.3-0.2 0.6-0.3 0.3-0.1 0.7-0.1h11.3q0.3 0 0.6 0.1 0.4 0.1 0.6 0.3 0.3 0.2 0.5 0.4 0.2 0.3 0.4 0.6l27.3 64.5q0.2 0.5 0.1 1.1 0 0.6-0.4 1.1-0.3 0.5-0.8 0.7-0.6 0.3-1.2 0.3l-11.8-0.7q-0.3 0-0.7-0.2-0.3-0.1-0.6-0.3-0.2-0.2-0.4-0.5-0.2-0.3-0.3-0.6l-3.7-12.2q-0.2-0.3-0.4-0.6-0.2-0.3-0.5-0.6-0.3-0.2-0.6-0.3-0.4-0.1-0.7-0.1zm-21.8-16.4q-0.2 0.5-0.2 1.2 0.1 0.6 0.4 1.1 0.3 0.5 0.9 0.8 0.5 0.3 1.2 0.3h12.4q0.6 0 1.1-0.3 0.6-0.3 0.9-0.8 0.3-0.6 0.4-1.2 0-0.6-0.2-1.2l-6.3-13.5q-0.3-0.7-0.9-1-0.6-0.4-1.3-0.4-0.7 0-1.3 0.4-0.6 0.4-0.9 1z"/>
		<path id="Layer" class="s1" d="m640.3 296.3q-0.8 1.5-0.9 3.3-0.2 24.8-0.2 49.2 0 0.4-0.1 0.8-0.2 0.4-0.5 0.7-0.3 0.3-0.7 0.5-0.4 0.2-0.8 0.2c-2.8 0-11 1.1-12.2-1.9-1.2-3 0.1-9.5 0.1-12.6q0-18.9 0-37.8c0-2-2-2.6-3.8-2.7q-7.9-0.4-15.8 0-0.3 0-0.5-0.1-0.3 0-0.5-0.2-0.2-0.2-0.3-0.5-0.1-0.2-0.1-0.5 0-5 0.1-9.9c0.1-2.2 1.3-2.8 3.3-2.8q25.5 0 50.8 0 0.4 0 0.8 0.2 0.3 0.1 0.6 0.4 0.3 0.3 0.5 0.7 0.1 0.4 0.2 0.8v10.4q0 1.7-1.7 1.6l-17.2-0.5q-0.2 0-0.3 0.1-0.2 0-0.4 0.1-0.1 0.1-0.2 0.2-0.2 0.1-0.2 0.3z"/>
		<path id="Layer" class="s1" d="m726 337.2l33.2 0.1q0.4 0 0.8 0.1 0.4 0.2 0.6 0.4 0.3 0.3 0.4 0.7 0.2 0.4 0.2 0.8l-0.3 9.8q0 0.4-0.1 0.7-0.2 0.4-0.5 0.6-0.2 0.3-0.6 0.5-0.3 0.1-0.7 0.1h-47.8q-0.4 0-0.7-0.1-0.4-0.2-0.7-0.5-0.3-0.2-0.4-0.6-0.1-0.4-0.2-0.8v-65q0.1-0.4 0.2-0.8 0.1-0.4 0.4-0.6 0.3-0.3 0.7-0.5 0.3-0.1 0.7-0.1h47.1q0.4 0 0.7 0.1 0.4 0.2 0.7 0.5 0.2 0.2 0.4 0.6 0.1 0.4 0.1 0.7l0.1 9.9q0 0.4-0.2 0.7-0.1 0.4-0.4 0.7-0.3 0.3-0.6 0.4-0.4 0.1-0.8 0.1l-32.3 0.1q-0.4 0-0.8 0.1-0.4 0.1-0.6 0.4-0.3 0.3-0.5 0.7-0.1 0.3-0.1 0.7v9.4q0 0.3 0.1 0.7 0.2 0.4 0.5 0.6 0.2 0.3 0.6 0.5 0.4 0.1 0.8 0.1h28q0.4 0 0.8 0.1 0.4 0.2 0.6 0.5 0.3 0.2 0.5 0.6 0.1 0.4 0.1 0.8v9.8q0 0.4-0.1 0.7-0.2 0.4-0.5 0.7-0.2 0.2-0.6 0.4-0.4 0.1-0.8 0.1l-28 0.1q-0.4 0-0.8 0.1-0.4 0.2-0.6 0.5-0.3 0.2-0.5 0.6-0.1 0.3-0.1 0.7v10.6q0 0.4 0.1 0.7 0.2 0.4 0.5 0.7 0.2 0.2 0.6 0.4 0.4 0.1 0.8 0.1z"/>
		<path id="Layer" class="s1" d="m923 284.3c0-1.3 1-2.3 2.3-2.3h10.6c1.3 0 2.4 1 2.4 2.3v64.3c0 1.3-1.1 2.4-2.4 2.4h-10.6c-1.3 0-2.3-1.1-2.3-2.4z"/>
		<path id="Layer" class="s1" d="m1038.6 321.8c1.7-2.1 0.7-32.9 0.7-37.9q0-0.3 0.1-0.7 0.2-0.4 0.5-0.6 0.2-0.3 0.6-0.5 0.4-0.1 0.7-0.1h12.1q0.1 0 0.2 0.1 0.2 0 0.3 0.1 0.1 0.1 0.1 0.3 0.1 0.1 0.1 0.2v65.9q0 0.2-0.1 0.4 0 0.2-0.2 0.3-0.1 0.2-0.2 0.3-0.2 0-0.4 0.1l-10.8 1.3q-0.1 0-0.3 0-0.2-0.1-0.3-0.1-0.2-0.1-0.4-0.2-0.1-0.1-0.2-0.3-15.3-20.2-30.8-40.2-1.2-1.5-2.2 1.1 0 0-0.1 0.1 0 0 0 0.1 0 0 0 0.1 0 0 0 0.1v38.5q0 0.2-0.1 0.3 0 0.2-0.1 0.3-0.1 0.1-0.3 0.1-0.1 0.1-0.2 0.1h-12.4q-0.2 0-0.5-0.1-0.2-0.1-0.4-0.3-0.2-0.2-0.3-0.4-0.1-0.3-0.1-0.5l0.1-66.5q0-0.2 0.1-0.3 0.1-0.2 0.2-0.4 0.2-0.1 0.4-0.2 0.1-0.1 0.4-0.1l11.9-0.3q0.4 0 0.6 0.4l30 39.5q0.1 0.1 0.3 0.2 0.1 0.1 0.3 0.1 0.2 0 0.4-0.1 0.2 0 0.3-0.2z"/>
	</g>
</svg>